<svg width="14" height="16" xmlns="http://www.w3.org/2000/svg">
  <path d="M 2 13 h 4 v 1 H 2 v -1 Z m 5 -6 H 2 v 1 h 5 V 7 Z m 2 3 V 8 l -3 3 l 3 3 v -2 h 5 v -2 H 9 Z M 4.5 9 H 2 v 1 h 2.5 V 9 Z M 2 12 h 2.5 v -1 H 2 v 1 Z m 9 1 h 1 v 2 c -0.02 0.28 -0.11 0.52 -0.3 0.7 c -0.19 0.18 -0.42 0.28 -0.7 0.3 H 1 c -0.55 0 -1 -0.45 -1 -1 V 4 c 0 -0.55 0.45 -1 1 -1 h 3 c 0 -1.11 0.89 -2 2 -2 c 1.11 0 2 0.89 2 2 h 3 c 0.55 0 1 0.45 1 1 v 5 h -1 V 6 H 1 v 9 h 10 v -2 Z M 2 5 h 8 c 0 -0.55 -0.45 -1 -1 -1 H 8 c -0.55 0 -1 -0.45 -1 -1 s -0.45 -1 -1 -1 s -1 0.45 -1 1 s -0.45 1 -1 1 H 3 c -0.55 0 -1 0.45 -1 1 Z" />
</svg>
